<mxfile host="app.diagrams.net" modified="2024-04-30T15:00:17.271Z" agent="Mozilla/5.0 (Macintosh; Intel Mac OS X 10_15_7) AppleWebKit/537.36 (KHTML, like Gecko) Chrome/124.0.0.0 Safari/537.36" etag="8e_6mbDOchtRlcl3aKd2" version="24.3.0" type="device" pages="2">
  <diagram id="C5RBs43oDa-KdzZeNtuy" name="Class Diagram">
    <mxGraphModel dx="1194" dy="496" grid="1" gridSize="10" guides="1" tooltips="1" connect="1" arrows="1" fold="1" page="1" pageScale="1" pageWidth="827" pageHeight="1169" math="0" shadow="0">
      <root>
        <mxCell id="WIyWlLk6GJQsqaUBKTNV-0" />
        <mxCell id="WIyWlLk6GJQsqaUBKTNV-1" parent="WIyWlLk6GJQsqaUBKTNV-0" />
        <mxCell id="v_Jj5q0ID63RUvaCrqaN-0" value="Client" style="swimlane;fontStyle=1;align=center;verticalAlign=top;childLayout=stackLayout;horizontal=1;startSize=26;horizontalStack=0;resizeParent=1;resizeParentMax=0;resizeLast=0;collapsible=1;marginBottom=0;whiteSpace=wrap;html=1;" parent="WIyWlLk6GJQsqaUBKTNV-1" vertex="1">
          <mxGeometry x="80" y="80" width="160" height="112" as="geometry" />
        </mxCell>
        <mxCell id="v_Jj5q0ID63RUvaCrqaN-1" value="- send_sock: socket" style="text;strokeColor=none;fillColor=none;align=left;verticalAlign=top;spacingLeft=4;spacingRight=4;overflow=hidden;rotatable=0;points=[[0,0.5],[1,0.5]];portConstraint=eastwest;whiteSpace=wrap;html=1;" parent="v_Jj5q0ID63RUvaCrqaN-0" vertex="1">
          <mxGeometry y="26" width="160" height="26" as="geometry" />
        </mxCell>
        <mxCell id="v_Jj5q0ID63RUvaCrqaN-9" value="- recv_sock: socket" style="text;strokeColor=none;fillColor=none;align=left;verticalAlign=top;spacingLeft=4;spacingRight=4;overflow=hidden;rotatable=0;points=[[0,0.5],[1,0.5]];portConstraint=eastwest;whiteSpace=wrap;html=1;" parent="v_Jj5q0ID63RUvaCrqaN-0" vertex="1">
          <mxGeometry y="52" width="160" height="26" as="geometry" />
        </mxCell>
        <mxCell id="v_Jj5q0ID63RUvaCrqaN-2" value="" style="line;strokeWidth=1;fillColor=none;align=left;verticalAlign=middle;spacingTop=-1;spacingLeft=3;spacingRight=3;rotatable=0;labelPosition=right;points=[];portConstraint=eastwest;strokeColor=inherit;" parent="v_Jj5q0ID63RUvaCrqaN-0" vertex="1">
          <mxGeometry y="78" width="160" height="8" as="geometry" />
        </mxCell>
        <mxCell id="v_Jj5q0ID63RUvaCrqaN-3" value="+ innit(name): None" style="text;strokeColor=none;fillColor=none;align=left;verticalAlign=top;spacingLeft=4;spacingRight=4;overflow=hidden;rotatable=0;points=[[0,0.5],[1,0.5]];portConstraint=eastwest;whiteSpace=wrap;html=1;" parent="v_Jj5q0ID63RUvaCrqaN-0" vertex="1">
          <mxGeometry y="86" width="160" height="26" as="geometry" />
        </mxCell>
        <mxCell id="v_Jj5q0ID63RUvaCrqaN-4" value="Server" style="swimlane;fontStyle=1;align=center;verticalAlign=top;childLayout=stackLayout;horizontal=1;startSize=26;horizontalStack=0;resizeParent=1;resizeParentMax=0;resizeLast=0;collapsible=1;marginBottom=0;whiteSpace=wrap;html=1;" parent="WIyWlLk6GJQsqaUBKTNV-1" vertex="1">
          <mxGeometry x="480" y="80" width="220" height="190" as="geometry" />
        </mxCell>
        <mxCell id="ywHb8sMygKDk7u-xR07f-25" value="- active_connections: list&amp;lt;Connection&amp;gt;" style="text;strokeColor=none;fillColor=none;align=left;verticalAlign=top;spacingLeft=4;spacingRight=4;overflow=hidden;rotatable=0;points=[[0,0.5],[1,0.5]];portConstraint=eastwest;whiteSpace=wrap;html=1;" parent="v_Jj5q0ID63RUvaCrqaN-4" vertex="1">
          <mxGeometry y="26" width="220" height="26" as="geometry" />
        </mxCell>
        <mxCell id="3YF-yE8lUr88BdjKzUOa-0" value="- write_sock: socket" style="text;strokeColor=none;fillColor=none;align=left;verticalAlign=top;spacingLeft=4;spacingRight=4;overflow=hidden;rotatable=0;points=[[0,0.5],[1,0.5]];portConstraint=eastwest;whiteSpace=wrap;html=1;" parent="v_Jj5q0ID63RUvaCrqaN-4" vertex="1">
          <mxGeometry y="52" width="220" height="26" as="geometry" />
        </mxCell>
        <mxCell id="3YF-yE8lUr88BdjKzUOa-1" value="- read_sock: socket" style="text;strokeColor=none;fillColor=none;align=left;verticalAlign=top;spacingLeft=4;spacingRight=4;overflow=hidden;rotatable=0;points=[[0,0.5],[1,0.5]];portConstraint=eastwest;whiteSpace=wrap;html=1;" parent="v_Jj5q0ID63RUvaCrqaN-4" vertex="1">
          <mxGeometry y="78" width="220" height="26" as="geometry" />
        </mxCell>
        <mxCell id="v_Jj5q0ID63RUvaCrqaN-6" value="" style="line;strokeWidth=1;fillColor=none;align=left;verticalAlign=middle;spacingTop=-1;spacingLeft=3;spacingRight=3;rotatable=0;labelPosition=right;points=[];portConstraint=eastwest;strokeColor=inherit;" parent="v_Jj5q0ID63RUvaCrqaN-4" vertex="1">
          <mxGeometry y="104" width="220" height="8" as="geometry" />
        </mxCell>
        <mxCell id="v_Jj5q0ID63RUvaCrqaN-7" value="+ add_connection(str): None" style="text;strokeColor=none;fillColor=none;align=left;verticalAlign=top;spacingLeft=4;spacingRight=4;overflow=hidden;rotatable=0;points=[[0,0.5],[1,0.5]];portConstraint=eastwest;whiteSpace=wrap;html=1;" parent="v_Jj5q0ID63RUvaCrqaN-4" vertex="1">
          <mxGeometry y="112" width="220" height="26" as="geometry" />
        </mxCell>
        <mxCell id="ywHb8sMygKDk7u-xR07f-35" value="+ remove_connection(str): None" style="text;strokeColor=none;fillColor=none;align=left;verticalAlign=top;spacingLeft=4;spacingRight=4;overflow=hidden;rotatable=0;points=[[0,0.5],[1,0.5]];portConstraint=eastwest;whiteSpace=wrap;html=1;" parent="v_Jj5q0ID63RUvaCrqaN-4" vertex="1">
          <mxGeometry y="138" width="220" height="26" as="geometry" />
        </mxCell>
        <mxCell id="v_Jj5q0ID63RUvaCrqaN-12" value="+ accept_connections(): None" style="text;strokeColor=none;fillColor=none;align=left;verticalAlign=top;spacingLeft=4;spacingRight=4;overflow=hidden;rotatable=0;points=[[0,0.5],[1,0.5]];portConstraint=eastwest;whiteSpace=wrap;html=1;" parent="v_Jj5q0ID63RUvaCrqaN-4" vertex="1">
          <mxGeometry y="164" width="220" height="26" as="geometry" />
        </mxCell>
        <mxCell id="v_Jj5q0ID63RUvaCrqaN-11" value="Uses" style="endArrow=open;endSize=12;dashed=1;html=1;rounded=0;entryX=0;entryY=0.5;entryDx=0;entryDy=0;exitX=1;exitY=0.5;exitDx=0;exitDy=0;" parent="WIyWlLk6GJQsqaUBKTNV-1" source="v_Jj5q0ID63RUvaCrqaN-9" edge="1">
          <mxGeometry width="160" relative="1" as="geometry">
            <mxPoint x="280" y="135.5" as="sourcePoint" />
            <mxPoint x="480" y="145" as="targetPoint" />
          </mxGeometry>
        </mxCell>
        <mxCell id="ODC3OEqQ4iOI0RRZzkp0-1" value="receiver" style="swimlane;fontStyle=1;align=center;verticalAlign=top;childLayout=stackLayout;horizontal=1;startSize=26;horizontalStack=0;resizeParent=1;resizeParentMax=0;resizeLast=0;collapsible=1;marginBottom=0;whiteSpace=wrap;html=1;" parent="WIyWlLk6GJQsqaUBKTNV-1" vertex="1">
          <mxGeometry x="840" y="600" width="155" height="86" as="geometry" />
        </mxCell>
        <mxCell id="ODC3OEqQ4iOI0RRZzkp0-2" value="+ field: type" style="text;strokeColor=none;fillColor=none;align=left;verticalAlign=top;spacingLeft=4;spacingRight=4;overflow=hidden;rotatable=0;points=[[0,0.5],[1,0.5]];portConstraint=eastwest;whiteSpace=wrap;html=1;" parent="ODC3OEqQ4iOI0RRZzkp0-1" vertex="1">
          <mxGeometry y="26" width="155" height="26" as="geometry" />
        </mxCell>
        <mxCell id="ODC3OEqQ4iOI0RRZzkp0-3" value="" style="line;strokeWidth=1;fillColor=none;align=left;verticalAlign=middle;spacingTop=-1;spacingLeft=3;spacingRight=3;rotatable=0;labelPosition=right;points=[];portConstraint=eastwest;strokeColor=inherit;" parent="ODC3OEqQ4iOI0RRZzkp0-1" vertex="1">
          <mxGeometry y="52" width="155" height="8" as="geometry" />
        </mxCell>
        <mxCell id="ODC3OEqQ4iOI0RRZzkp0-4" value="+ method(type): type" style="text;strokeColor=none;fillColor=none;align=left;verticalAlign=top;spacingLeft=4;spacingRight=4;overflow=hidden;rotatable=0;points=[[0,0.5],[1,0.5]];portConstraint=eastwest;whiteSpace=wrap;html=1;" parent="ODC3OEqQ4iOI0RRZzkp0-1" vertex="1">
          <mxGeometry y="60" width="155" height="26" as="geometry" />
        </mxCell>
        <mxCell id="ODC3OEqQ4iOI0RRZzkp0-5" value="sender" style="swimlane;fontStyle=1;align=center;verticalAlign=top;childLayout=stackLayout;horizontal=1;startSize=26;horizontalStack=0;resizeParent=1;resizeParentMax=0;resizeLast=0;collapsible=1;marginBottom=0;whiteSpace=wrap;html=1;" parent="WIyWlLk6GJQsqaUBKTNV-1" vertex="1">
          <mxGeometry x="1080" y="600" width="215" height="86" as="geometry" />
        </mxCell>
        <mxCell id="ODC3OEqQ4iOI0RRZzkp0-6" value="# message_type: Message" style="text;strokeColor=none;fillColor=none;align=left;verticalAlign=top;spacingLeft=4;spacingRight=4;overflow=hidden;rotatable=0;points=[[0,0.5],[1,0.5]];portConstraint=eastwest;whiteSpace=wrap;html=1;" parent="ODC3OEqQ4iOI0RRZzkp0-5" vertex="1">
          <mxGeometry y="26" width="215" height="26" as="geometry" />
        </mxCell>
        <mxCell id="ODC3OEqQ4iOI0RRZzkp0-7" value="" style="line;strokeWidth=1;fillColor=none;align=left;verticalAlign=middle;spacingTop=-1;spacingLeft=3;spacingRight=3;rotatable=0;labelPosition=right;points=[];portConstraint=eastwest;strokeColor=inherit;" parent="ODC3OEqQ4iOI0RRZzkp0-5" vertex="1">
          <mxGeometry y="52" width="215" height="8" as="geometry" />
        </mxCell>
        <mxCell id="ODC3OEqQ4iOI0RRZzkp0-8" value="+ set_message_type(Message): void" style="text;strokeColor=none;fillColor=none;align=left;verticalAlign=top;spacingLeft=4;spacingRight=4;overflow=hidden;rotatable=0;points=[[0,0.5],[1,0.5]];portConstraint=eastwest;whiteSpace=wrap;html=1;" parent="ODC3OEqQ4iOI0RRZzkp0-5" vertex="1">
          <mxGeometry y="60" width="215" height="26" as="geometry" />
        </mxCell>
        <mxCell id="ODC3OEqQ4iOI0RRZzkp0-9" value="socket" style="swimlane;fontStyle=1;align=center;verticalAlign=top;childLayout=stackLayout;horizontal=1;startSize=26;horizontalStack=0;resizeParent=1;resizeParentMax=0;resizeLast=0;collapsible=1;marginBottom=0;whiteSpace=wrap;html=1;" parent="WIyWlLk6GJQsqaUBKTNV-1" vertex="1">
          <mxGeometry x="960" y="450" width="155" height="86" as="geometry" />
        </mxCell>
        <mxCell id="ODC3OEqQ4iOI0RRZzkp0-10" value="# socket_name: socket" style="text;strokeColor=none;fillColor=none;align=left;verticalAlign=top;spacingLeft=4;spacingRight=4;overflow=hidden;rotatable=0;points=[[0,0.5],[1,0.5]];portConstraint=eastwest;whiteSpace=wrap;html=1;" parent="ODC3OEqQ4iOI0RRZzkp0-9" vertex="1">
          <mxGeometry y="26" width="155" height="26" as="geometry" />
        </mxCell>
        <mxCell id="ODC3OEqQ4iOI0RRZzkp0-11" value="" style="line;strokeWidth=1;fillColor=none;align=left;verticalAlign=middle;spacingTop=-1;spacingLeft=3;spacingRight=3;rotatable=0;labelPosition=right;points=[];portConstraint=eastwest;strokeColor=inherit;" parent="ODC3OEqQ4iOI0RRZzkp0-9" vertex="1">
          <mxGeometry y="52" width="155" height="8" as="geometry" />
        </mxCell>
        <mxCell id="ODC3OEqQ4iOI0RRZzkp0-12" value="+ method(type): type" style="text;strokeColor=none;fillColor=none;align=left;verticalAlign=top;spacingLeft=4;spacingRight=4;overflow=hidden;rotatable=0;points=[[0,0.5],[1,0.5]];portConstraint=eastwest;whiteSpace=wrap;html=1;" parent="ODC3OEqQ4iOI0RRZzkp0-9" vertex="1">
          <mxGeometry y="60" width="155" height="26" as="geometry" />
        </mxCell>
        <mxCell id="ODC3OEqQ4iOI0RRZzkp0-13" style="edgeStyle=orthogonalEdgeStyle;rounded=0;orthogonalLoop=1;jettySize=auto;html=1;exitX=0.5;exitY=0;exitDx=0;exitDy=0;entryX=0.494;entryY=1;entryDx=0;entryDy=0;entryPerimeter=0;" parent="WIyWlLk6GJQsqaUBKTNV-1" source="ODC3OEqQ4iOI0RRZzkp0-1" target="ODC3OEqQ4iOI0RRZzkp0-12" edge="1">
          <mxGeometry relative="1" as="geometry" />
        </mxCell>
        <mxCell id="ODC3OEqQ4iOI0RRZzkp0-14" style="edgeStyle=orthogonalEdgeStyle;rounded=0;orthogonalLoop=1;jettySize=auto;html=1;exitX=0.5;exitY=0;exitDx=0;exitDy=0;entryX=0.5;entryY=1.038;entryDx=0;entryDy=0;entryPerimeter=0;" parent="WIyWlLk6GJQsqaUBKTNV-1" source="ODC3OEqQ4iOI0RRZzkp0-5" target="ODC3OEqQ4iOI0RRZzkp0-12" edge="1">
          <mxGeometry relative="1" as="geometry" />
        </mxCell>
        <mxCell id="ywHb8sMygKDk7u-xR07f-1" style="edgeStyle=orthogonalEdgeStyle;rounded=0;orthogonalLoop=1;jettySize=auto;html=1;exitX=0.5;exitY=0;exitDx=0;exitDy=0;entryX=1;entryY=0.5;entryDx=0;entryDy=0;" parent="WIyWlLk6GJQsqaUBKTNV-1" target="ODC3OEqQ4iOI0RRZzkp0-6" edge="1">
          <mxGeometry relative="1" as="geometry">
            <mxPoint x="1355" y="686" as="sourcePoint" />
          </mxGeometry>
        </mxCell>
        <mxCell id="ywHb8sMygKDk7u-xR07f-3" value="personal" style="swimlane;fontStyle=1;align=center;verticalAlign=top;childLayout=stackLayout;horizontal=1;startSize=26;horizontalStack=0;resizeParent=1;resizeParentMax=0;resizeLast=0;collapsible=1;marginBottom=0;whiteSpace=wrap;html=1;" parent="WIyWlLk6GJQsqaUBKTNV-1" vertex="1">
          <mxGeometry x="1250" y="836" width="155" height="86" as="geometry" />
        </mxCell>
        <mxCell id="ywHb8sMygKDk7u-xR07f-4" value="+ field: type" style="text;strokeColor=none;fillColor=none;align=left;verticalAlign=top;spacingLeft=4;spacingRight=4;overflow=hidden;rotatable=0;points=[[0,0.5],[1,0.5]];portConstraint=eastwest;whiteSpace=wrap;html=1;" parent="ywHb8sMygKDk7u-xR07f-3" vertex="1">
          <mxGeometry y="26" width="155" height="26" as="geometry" />
        </mxCell>
        <mxCell id="ywHb8sMygKDk7u-xR07f-5" value="" style="line;strokeWidth=1;fillColor=none;align=left;verticalAlign=middle;spacingTop=-1;spacingLeft=3;spacingRight=3;rotatable=0;labelPosition=right;points=[];portConstraint=eastwest;strokeColor=inherit;" parent="ywHb8sMygKDk7u-xR07f-3" vertex="1">
          <mxGeometry y="52" width="155" height="8" as="geometry" />
        </mxCell>
        <mxCell id="ywHb8sMygKDk7u-xR07f-6" value="+ method(type): type" style="text;strokeColor=none;fillColor=none;align=left;verticalAlign=top;spacingLeft=4;spacingRight=4;overflow=hidden;rotatable=0;points=[[0,0.5],[1,0.5]];portConstraint=eastwest;whiteSpace=wrap;html=1;" parent="ywHb8sMygKDk7u-xR07f-3" vertex="1">
          <mxGeometry y="60" width="155" height="26" as="geometry" />
        </mxCell>
        <mxCell id="ywHb8sMygKDk7u-xR07f-7" value="everyone" style="swimlane;fontStyle=1;align=center;verticalAlign=top;childLayout=stackLayout;horizontal=1;startSize=26;horizontalStack=0;resizeParent=1;resizeParentMax=0;resizeLast=0;collapsible=1;marginBottom=0;whiteSpace=wrap;html=1;" parent="WIyWlLk6GJQsqaUBKTNV-1" vertex="1">
          <mxGeometry x="1490" y="836" width="155" height="86" as="geometry" />
        </mxCell>
        <mxCell id="ywHb8sMygKDk7u-xR07f-8" value="+ field: type" style="text;strokeColor=none;fillColor=none;align=left;verticalAlign=top;spacingLeft=4;spacingRight=4;overflow=hidden;rotatable=0;points=[[0,0.5],[1,0.5]];portConstraint=eastwest;whiteSpace=wrap;html=1;" parent="ywHb8sMygKDk7u-xR07f-7" vertex="1">
          <mxGeometry y="26" width="155" height="26" as="geometry" />
        </mxCell>
        <mxCell id="ywHb8sMygKDk7u-xR07f-9" value="" style="line;strokeWidth=1;fillColor=none;align=left;verticalAlign=middle;spacingTop=-1;spacingLeft=3;spacingRight=3;rotatable=0;labelPosition=right;points=[];portConstraint=eastwest;strokeColor=inherit;" parent="ywHb8sMygKDk7u-xR07f-7" vertex="1">
          <mxGeometry y="52" width="155" height="8" as="geometry" />
        </mxCell>
        <mxCell id="ywHb8sMygKDk7u-xR07f-10" value="+ method(type): type" style="text;strokeColor=none;fillColor=none;align=left;verticalAlign=top;spacingLeft=4;spacingRight=4;overflow=hidden;rotatable=0;points=[[0,0.5],[1,0.5]];portConstraint=eastwest;whiteSpace=wrap;html=1;" parent="ywHb8sMygKDk7u-xR07f-7" vertex="1">
          <mxGeometry y="60" width="155" height="26" as="geometry" />
        </mxCell>
        <mxCell id="ywHb8sMygKDk7u-xR07f-15" value="" style="endArrow=block;dashed=1;endFill=0;endSize=12;html=1;rounded=0;exitX=0.5;exitY=0;exitDx=0;exitDy=0;entryX=0.5;entryY=1;entryDx=0;entryDy=0;edgeStyle=orthogonalEdgeStyle;" parent="WIyWlLk6GJQsqaUBKTNV-1" source="ywHb8sMygKDk7u-xR07f-3" edge="1">
          <mxGeometry width="160" relative="1" as="geometry">
            <mxPoint x="1295" y="796" as="sourcePoint" />
            <mxPoint x="1450" y="772" as="targetPoint" />
          </mxGeometry>
        </mxCell>
        <mxCell id="ywHb8sMygKDk7u-xR07f-16" value="" style="endArrow=block;dashed=1;endFill=0;endSize=12;html=1;rounded=0;exitX=0.5;exitY=0;exitDx=0;exitDy=0;entryX=0.5;entryY=1;entryDx=0;entryDy=0;edgeStyle=orthogonalEdgeStyle;" parent="WIyWlLk6GJQsqaUBKTNV-1" source="ywHb8sMygKDk7u-xR07f-7" edge="1">
          <mxGeometry width="160" relative="1" as="geometry">
            <mxPoint x="1515" y="796" as="sourcePoint" />
            <mxPoint x="1450" y="772" as="targetPoint" />
          </mxGeometry>
        </mxCell>
        <mxCell id="ywHb8sMygKDk7u-xR07f-21" value="abstract: Message" style="swimlane;fontStyle=1;align=center;verticalAlign=top;childLayout=stackLayout;horizontal=1;startSize=26;horizontalStack=0;resizeParent=1;resizeParentMax=0;resizeLast=0;collapsible=1;marginBottom=0;whiteSpace=wrap;html=1;" parent="WIyWlLk6GJQsqaUBKTNV-1" vertex="1">
          <mxGeometry x="1370" y="686" width="155" height="86" as="geometry" />
        </mxCell>
        <mxCell id="ywHb8sMygKDk7u-xR07f-22" value="+ field: type" style="text;strokeColor=none;fillColor=none;align=left;verticalAlign=top;spacingLeft=4;spacingRight=4;overflow=hidden;rotatable=0;points=[[0,0.5],[1,0.5]];portConstraint=eastwest;whiteSpace=wrap;html=1;" parent="ywHb8sMygKDk7u-xR07f-21" vertex="1">
          <mxGeometry y="26" width="155" height="26" as="geometry" />
        </mxCell>
        <mxCell id="ywHb8sMygKDk7u-xR07f-23" value="" style="line;strokeWidth=1;fillColor=none;align=left;verticalAlign=middle;spacingTop=-1;spacingLeft=3;spacingRight=3;rotatable=0;labelPosition=right;points=[];portConstraint=eastwest;strokeColor=inherit;" parent="ywHb8sMygKDk7u-xR07f-21" vertex="1">
          <mxGeometry y="52" width="155" height="8" as="geometry" />
        </mxCell>
        <mxCell id="ywHb8sMygKDk7u-xR07f-24" value="+ send(message): void" style="text;strokeColor=none;fillColor=none;align=left;verticalAlign=top;spacingLeft=4;spacingRight=4;overflow=hidden;rotatable=0;points=[[0,0.5],[1,0.5]];portConstraint=eastwest;whiteSpace=wrap;html=1;" parent="ywHb8sMygKDk7u-xR07f-21" vertex="1">
          <mxGeometry y="60" width="155" height="26" as="geometry" />
        </mxCell>
        <mxCell id="ywHb8sMygKDk7u-xR07f-27" value="Connection" style="swimlane;fontStyle=1;align=center;verticalAlign=top;childLayout=stackLayout;horizontal=1;startSize=26;horizontalStack=0;resizeParent=1;resizeParentMax=0;resizeLast=0;collapsible=1;marginBottom=0;whiteSpace=wrap;html=1;" parent="WIyWlLk6GJQsqaUBKTNV-1" vertex="1">
          <mxGeometry x="680" y="358" width="160" height="138" as="geometry" />
        </mxCell>
        <mxCell id="ywHb8sMygKDk7u-xR07f-28" value="- user_name: str" style="text;strokeColor=none;fillColor=none;align=left;verticalAlign=top;spacingLeft=4;spacingRight=4;overflow=hidden;rotatable=0;points=[[0,0.5],[1,0.5]];portConstraint=eastwest;whiteSpace=wrap;html=1;" parent="ywHb8sMygKDk7u-xR07f-27" vertex="1">
          <mxGeometry y="26" width="160" height="26" as="geometry" />
        </mxCell>
        <mxCell id="ywHb8sMygKDk7u-xR07f-36" value="- recv_sock: socket" style="text;strokeColor=none;fillColor=none;align=left;verticalAlign=top;spacingLeft=4;spacingRight=4;overflow=hidden;rotatable=0;points=[[0,0.5],[1,0.5]];portConstraint=eastwest;whiteSpace=wrap;html=1;" parent="ywHb8sMygKDk7u-xR07f-27" vertex="1">
          <mxGeometry y="52" width="160" height="26" as="geometry" />
        </mxCell>
        <mxCell id="ywHb8sMygKDk7u-xR07f-38" value="- send_sock: socket" style="text;strokeColor=none;fillColor=none;align=left;verticalAlign=top;spacingLeft=4;spacingRight=4;overflow=hidden;rotatable=0;points=[[0,0.5],[1,0.5]];portConstraint=eastwest;whiteSpace=wrap;html=1;" parent="ywHb8sMygKDk7u-xR07f-27" vertex="1">
          <mxGeometry y="78" width="160" height="26" as="geometry" />
        </mxCell>
        <mxCell id="ywHb8sMygKDk7u-xR07f-29" value="" style="line;strokeWidth=1;fillColor=none;align=left;verticalAlign=middle;spacingTop=-1;spacingLeft=3;spacingRight=3;rotatable=0;labelPosition=right;points=[];portConstraint=eastwest;strokeColor=inherit;" parent="ywHb8sMygKDk7u-xR07f-27" vertex="1">
          <mxGeometry y="104" width="160" height="8" as="geometry" />
        </mxCell>
        <mxCell id="ywHb8sMygKDk7u-xR07f-30" value="+ method(type): type" style="text;strokeColor=none;fillColor=none;align=left;verticalAlign=top;spacingLeft=4;spacingRight=4;overflow=hidden;rotatable=0;points=[[0,0.5],[1,0.5]];portConstraint=eastwest;whiteSpace=wrap;html=1;" parent="ywHb8sMygKDk7u-xR07f-27" vertex="1">
          <mxGeometry y="112" width="160" height="26" as="geometry" />
        </mxCell>
        <mxCell id="ywHb8sMygKDk7u-xR07f-31" style="edgeStyle=orthogonalEdgeStyle;rounded=0;orthogonalLoop=1;jettySize=auto;html=1;exitX=1;exitY=0.5;exitDx=0;exitDy=0;entryX=0.5;entryY=0;entryDx=0;entryDy=0;" parent="WIyWlLk6GJQsqaUBKTNV-1" edge="1">
          <mxGeometry relative="1" as="geometry">
            <mxPoint x="700" y="119" as="sourcePoint" />
            <mxPoint x="760" y="358" as="targetPoint" />
          </mxGeometry>
        </mxCell>
        <mxCell id="ywHb8sMygKDk7u-xR07f-39" style="edgeStyle=orthogonalEdgeStyle;rounded=0;orthogonalLoop=1;jettySize=auto;html=1;entryX=0;entryY=0.5;entryDx=0;entryDy=0;" parent="WIyWlLk6GJQsqaUBKTNV-1" source="ywHb8sMygKDk7u-xR07f-36" target="ODC3OEqQ4iOI0RRZzkp0-10" edge="1">
          <mxGeometry relative="1" as="geometry" />
        </mxCell>
      </root>
    </mxGraphModel>
  </diagram>
  <diagram id="BQWyi3ZJ55A2g7gXZWw6" name="Sequence Diagram">
    <mxGraphModel dx="1194" dy="496" grid="1" gridSize="10" guides="1" tooltips="1" connect="1" arrows="1" fold="1" page="1" pageScale="1" pageWidth="850" pageHeight="1100" math="0" shadow="0">
      <root>
        <mxCell id="0" />
        <mxCell id="1" parent="0" />
        <mxCell id="m5YWKxgP939f0KwSMe58-3" value="" style="shape=umlLifeline;perimeter=lifelinePerimeter;whiteSpace=wrap;html=1;container=1;dropTarget=0;collapsible=0;recursiveResize=0;outlineConnect=0;portConstraint=eastwest;newEdgeStyle={&quot;curved&quot;:0,&quot;rounded&quot;:0};participant=umlActor;" parent="1" vertex="1">
          <mxGeometry x="50" y="30" width="20" height="890" as="geometry" />
        </mxCell>
        <mxCell id="m5YWKxgP939f0KwSMe58-4" value="" style="shape=umlLifeline;perimeter=lifelinePerimeter;whiteSpace=wrap;html=1;container=1;dropTarget=0;collapsible=0;recursiveResize=0;outlineConnect=0;portConstraint=eastwest;newEdgeStyle={&quot;curved&quot;:0,&quot;rounded&quot;:0};participant=umlActor;" parent="1" vertex="1">
          <mxGeometry x="570" y="30" width="20" height="890" as="geometry" />
        </mxCell>
        <mxCell id="m5YWKxgP939f0KwSMe58-5" value="recv socket" style="shape=umlLifeline;perimeter=lifelinePerimeter;whiteSpace=wrap;html=1;container=1;dropTarget=0;collapsible=0;recursiveResize=0;outlineConnect=0;portConstraint=eastwest;newEdgeStyle={&quot;curved&quot;:0,&quot;rounded&quot;:0};" parent="1" vertex="1">
          <mxGeometry x="160" y="30" width="100" height="890" as="geometry" />
        </mxCell>
        <mxCell id="m5YWKxgP939f0KwSMe58-6" value="start connection" style="html=1;verticalAlign=bottom;endArrow=block;curved=0;rounded=0;" parent="1" target="m5YWKxgP939f0KwSMe58-5" edge="1">
          <mxGeometry width="80" relative="1" as="geometry">
            <mxPoint x="60" y="90" as="sourcePoint" />
            <mxPoint x="140" y="90" as="targetPoint" />
          </mxGeometry>
        </mxCell>
        <mxCell id="m5YWKxgP939f0KwSMe58-10" value="Server Obj" style="shape=umlLifeline;perimeter=lifelinePerimeter;whiteSpace=wrap;html=1;container=1;dropTarget=0;collapsible=0;recursiveResize=0;outlineConnect=0;portConstraint=eastwest;newEdgeStyle={&quot;curved&quot;:0,&quot;rounded&quot;:0};" parent="1" vertex="1">
          <mxGeometry x="300" y="30" width="100" height="890" as="geometry" />
        </mxCell>
        <mxCell id="m5YWKxgP939f0KwSMe58-11" value="send socket" style="shape=umlLifeline;perimeter=lifelinePerimeter;whiteSpace=wrap;html=1;container=1;dropTarget=0;collapsible=0;recursiveResize=0;outlineConnect=0;portConstraint=eastwest;newEdgeStyle={&quot;curved&quot;:0,&quot;rounded&quot;:0};" parent="1" vertex="1">
          <mxGeometry x="425" y="30" width="100" height="890" as="geometry" />
        </mxCell>
        <mxCell id="m5YWKxgP939f0KwSMe58-12" value="creates connection" style="html=1;verticalAlign=bottom;endArrow=block;curved=0;rounded=0;" parent="1" target="m5YWKxgP939f0KwSMe58-10" edge="1">
          <mxGeometry width="80" relative="1" as="geometry">
            <mxPoint x="210" y="110" as="sourcePoint" />
            <mxPoint x="290" y="110" as="targetPoint" />
          </mxGeometry>
        </mxCell>
        <mxCell id="m5YWKxgP939f0KwSMe58-13" value="connection OK" style="html=1;verticalAlign=bottom;endArrow=open;dashed=1;endSize=8;curved=0;rounded=0;" parent="1" target="m5YWKxgP939f0KwSMe58-5" edge="1">
          <mxGeometry relative="1" as="geometry">
            <mxPoint x="350" y="140" as="sourcePoint" />
            <mxPoint x="270" y="140" as="targetPoint" />
          </mxGeometry>
        </mxCell>
        <mxCell id="m5YWKxgP939f0KwSMe58-14" value="connection created" style="html=1;verticalAlign=bottom;endArrow=open;dashed=1;endSize=8;curved=0;rounded=0;" parent="1" target="m5YWKxgP939f0KwSMe58-3" edge="1">
          <mxGeometry relative="1" as="geometry">
            <mxPoint x="210" y="160" as="sourcePoint" />
            <mxPoint x="130" y="160" as="targetPoint" />
          </mxGeometry>
        </mxCell>
        <mxCell id="m5YWKxgP939f0KwSMe58-15" value="user name,&amp;nbsp;&lt;div&gt;message type, message&lt;/div&gt;" style="html=1;verticalAlign=bottom;endArrow=block;curved=0;rounded=0;" parent="1" edge="1">
          <mxGeometry width="80" relative="1" as="geometry">
            <mxPoint x="60" y="250" as="sourcePoint" />
            <mxPoint x="209.5" y="250" as="targetPoint" />
          </mxGeometry>
        </mxCell>
        <mxCell id="m5YWKxgP939f0KwSMe58-16" value="user name" style="html=1;verticalAlign=bottom;endArrow=block;curved=0;rounded=0;" parent="1" edge="1">
          <mxGeometry width="80" relative="1" as="geometry">
            <mxPoint x="210" y="270" as="sourcePoint" />
            <mxPoint x="349.5" y="270" as="targetPoint" />
          </mxGeometry>
        </mxCell>
        <mxCell id="m5YWKxgP939f0KwSMe58-21" value="user connected" style="shape=umlFrame;whiteSpace=wrap;html=1;pointerEvents=0;width=60;height=40;" parent="1" vertex="1">
          <mxGeometry y="281" width="610" height="69" as="geometry" />
        </mxCell>
        <mxCell id="m5YWKxgP939f0KwSMe58-22" value="else" style="shape=umlFrame;whiteSpace=wrap;html=1;pointerEvents=0;" parent="1" vertex="1">
          <mxGeometry y="355" width="610" height="75" as="geometry" />
        </mxCell>
        <mxCell id="m5YWKxgP939f0KwSMe58-25" value="user connected" style="html=1;verticalAlign=bottom;endArrow=block;curved=0;rounded=0;" parent="1" target="m5YWKxgP939f0KwSMe58-11" edge="1">
          <mxGeometry width="80" relative="1" as="geometry">
            <mxPoint x="350" y="300" as="sourcePoint" />
            <mxPoint x="430" y="300" as="targetPoint" />
          </mxGeometry>
        </mxCell>
        <mxCell id="m5YWKxgP939f0KwSMe58-26" value="user connected" style="html=1;verticalAlign=bottom;endArrow=open;dashed=1;endSize=8;curved=0;rounded=0;" parent="1" edge="1">
          <mxGeometry relative="1" as="geometry">
            <mxPoint x="474.5" y="330" as="sourcePoint" />
            <mxPoint x="59.83333333333337" y="330" as="targetPoint" />
          </mxGeometry>
        </mxCell>
        <mxCell id="m5YWKxgP939f0KwSMe58-28" value="user disconnected" style="html=1;verticalAlign=bottom;endArrow=block;curved=0;rounded=0;" parent="1" target="m5YWKxgP939f0KwSMe58-11" edge="1">
          <mxGeometry width="80" relative="1" as="geometry">
            <mxPoint x="350" y="380" as="sourcePoint" />
            <mxPoint x="430" y="380" as="targetPoint" />
          </mxGeometry>
        </mxCell>
        <mxCell id="m5YWKxgP939f0KwSMe58-29" value="cannot send message" style="html=1;verticalAlign=bottom;endArrow=open;dashed=1;endSize=8;curved=0;rounded=0;" parent="1" target="m5YWKxgP939f0KwSMe58-3" edge="1">
          <mxGeometry relative="1" as="geometry">
            <mxPoint x="470" y="410" as="sourcePoint" />
            <mxPoint x="390" y="410" as="targetPoint" />
          </mxGeometry>
        </mxCell>
        <mxCell id="m5YWKxgP939f0KwSMe58-30" value="message type OK" style="shape=umlFrame;whiteSpace=wrap;html=1;pointerEvents=0;" parent="1" vertex="1">
          <mxGeometry y="471" width="610" height="120" as="geometry" />
        </mxCell>
        <mxCell id="m5YWKxgP939f0KwSMe58-31" value="message type" style="html=1;verticalAlign=bottom;endArrow=block;curved=0;rounded=0;" parent="1" edge="1">
          <mxGeometry width="80" relative="1" as="geometry">
            <mxPoint x="210" y="450" as="sourcePoint" />
            <mxPoint x="349.5" y="450" as="targetPoint" />
          </mxGeometry>
        </mxCell>
        <mxCell id="m5YWKxgP939f0KwSMe58-32" value="valid message type" style="html=1;verticalAlign=bottom;endArrow=block;curved=0;rounded=0;" parent="1" target="m5YWKxgP939f0KwSMe58-11" edge="1">
          <mxGeometry width="80" relative="1" as="geometry">
            <mxPoint x="350" y="500" as="sourcePoint" />
            <mxPoint x="430" y="500" as="targetPoint" />
          </mxGeometry>
        </mxCell>
        <mxCell id="m5YWKxgP939f0KwSMe58-33" value="send message" style="html=1;verticalAlign=bottom;endArrow=block;curved=0;rounded=0;" parent="1" edge="1">
          <mxGeometry width="80" relative="1" as="geometry">
            <mxPoint x="474.7592592592591" y="520" as="sourcePoint" />
            <mxPoint x="579.5" y="520" as="targetPoint" />
          </mxGeometry>
        </mxCell>
        <mxCell id="m5YWKxgP939f0KwSMe58-34" value="message sent" style="html=1;verticalAlign=bottom;endArrow=open;dashed=1;endSize=8;curved=0;rounded=0;" parent="1" target="m5YWKxgP939f0KwSMe58-3" edge="1">
          <mxGeometry relative="1" as="geometry">
            <mxPoint x="580" y="550" as="sourcePoint" />
            <mxPoint x="500" y="550" as="targetPoint" />
          </mxGeometry>
        </mxCell>
        <mxCell id="m5YWKxgP939f0KwSMe58-35" value="else" style="shape=umlFrame;whiteSpace=wrap;html=1;pointerEvents=0;" parent="1" vertex="1">
          <mxGeometry y="596" width="610" height="74" as="geometry" />
        </mxCell>
        <mxCell id="m5YWKxgP939f0KwSMe58-37" value="invalid message type" style="html=1;verticalAlign=bottom;endArrow=block;curved=0;rounded=0;" parent="1" target="m5YWKxgP939f0KwSMe58-11" edge="1">
          <mxGeometry width="80" relative="1" as="geometry">
            <mxPoint x="350" y="620" as="sourcePoint" />
            <mxPoint x="430" y="620" as="targetPoint" />
          </mxGeometry>
        </mxCell>
        <mxCell id="m5YWKxgP939f0KwSMe58-38" value="cannot send message" style="html=1;verticalAlign=bottom;endArrow=open;dashed=1;endSize=8;curved=0;rounded=0;" parent="1" edge="1">
          <mxGeometry relative="1" as="geometry">
            <mxPoint x="474.5" y="650" as="sourcePoint" />
            <mxPoint x="59.75925925925924" y="650" as="targetPoint" />
          </mxGeometry>
        </mxCell>
        <mxCell id="7fOzA-QF9LVmuO8zlhko-1" value="end connection" style="html=1;verticalAlign=bottom;endArrow=block;curved=0;rounded=0;" parent="1" target="m5YWKxgP939f0KwSMe58-5" edge="1">
          <mxGeometry width="80" relative="1" as="geometry">
            <mxPoint x="60" y="710" as="sourcePoint" />
            <mxPoint x="140" y="710" as="targetPoint" />
          </mxGeometry>
        </mxCell>
        <mxCell id="7fOzA-QF9LVmuO8zlhko-2" value="remove connection" style="html=1;verticalAlign=bottom;endArrow=block;curved=0;rounded=0;" parent="1" target="m5YWKxgP939f0KwSMe58-10" edge="1">
          <mxGeometry width="80" relative="1" as="geometry">
            <mxPoint x="210" y="740" as="sourcePoint" />
            <mxPoint x="290" y="740" as="targetPoint" />
          </mxGeometry>
        </mxCell>
        <mxCell id="7fOzA-QF9LVmuO8zlhko-3" value="connection removed" style="html=1;verticalAlign=bottom;endArrow=block;curved=0;rounded=0;" parent="1" target="m5YWKxgP939f0KwSMe58-11" edge="1">
          <mxGeometry width="80" relative="1" as="geometry">
            <mxPoint x="350" y="760" as="sourcePoint" />
            <mxPoint x="430" y="760" as="targetPoint" />
          </mxGeometry>
        </mxCell>
        <mxCell id="7fOzA-QF9LVmuO8zlhko-4" value="connection removed" style="html=1;verticalAlign=bottom;endArrow=open;dashed=1;endSize=8;curved=0;rounded=0;exitX=0.51;exitY=0.861;exitDx=0;exitDy=0;exitPerimeter=0;" parent="1" edge="1">
          <mxGeometry relative="1" as="geometry">
            <mxPoint x="476" y="785.29" as="sourcePoint" />
            <mxPoint x="59.75925925925924" y="785.29" as="targetPoint" />
          </mxGeometry>
        </mxCell>
      </root>
    </mxGraphModel>
  </diagram>
</mxfile>
